<?xml version="1.0" standalone="no"?>
<!DOCTYPE svg PUBLIC "-//W3C//DTD SVG 20010904//EN"
 "http://www.w3.org/TR/2001/REC-SVG-20010904/DTD/svg10.dtd">
<svg version="1.0" xmlns="http://www.w3.org/2000/svg"
 width="16.000000pt" height="16.000000pt" viewBox="0 0 16.000000 16.000000"
 preserveAspectRatio="xMidYMid meet">

<g transform="translate(0.000000,16.000000) scale(0.100000,-0.100000)"
fill="#000000" stroke="none">
<path d="M58 153 c12 -2 32 -2 45 0 12 2 2 4 -23 4 -25 0 -35 -2 -22 -4z"/>
<path d="M13 134 c0 -11 7 -14 23 -10 21 6 24 2 30 -44 4 -27 10 -50 14 -50 4
0 10 23 14 50 6 46 9 50 30 44 16 -4 23 -1 23 10 0 12 -7 14 -26 9 -33 -9 -49
-9 -82 0 -19 5 -26 3 -26 -9z"/>
</g>
</svg>
